<svg width="233" height="76" viewBox="0 0 233 76" fill="none" xmlns="http://www.w3.org/2000/svg" class="my-svg2">
<path d="M1 1C1 11.7701 2.59505 22.249 3 32.7778C3.19675 37.8934 5.15456 34.0318 9 33.2222C19.8232 30.9436 32.8637 33 43.9444 33C47.1315 33 43 27.6673 43 25.5C43 24.1001 42.2904 18.3228 43.5 20.5C46.3602 25.6484 43.8532 38.4257 44.0556 43.8889C44.4291 53.9745 46.0274 64.1369 48 74" stroke="#cfc7bb" stroke-linecap="round"/>
<path d="M96 75C89.8948 70.9299 87.1977 62.9192 87 56C86.919 53.1647 85.9338 50.6894 86 47.7778C86.1397 41.6292 89.5408 36.5379 92.4444 31.3333C100.832 16.2995 110.383 9.24468 128 9C133.853 8.91871 137.13 8.73816 141.222 13.4444C145.71 18.6055 148.694 25.2079 150.556 31.7778C152.123 37.3098 152 43.7573 152 49.4444C152 54.9513 153.017 61.579 151.778 67C150.606 72.127 143.824 74 139 74C124.667 74 110.333 74 96 74" stroke="#cfc7bb" stroke-linecap="round"/>
<path d="M190 9C190 18.3333 190 27.6667 190 37C190 39.1091 190.886 40.0674 191 42C191.085 43.4448 194.34 42 195.611 42C204.449 42 213.481 41 222.444 41C224.197 41 226.734 41.4332 228.444 40.9444C229.817 40.5522 227.041 35.8542 227 34.7778C226.894 32.0271 227 29.2529 227 26.5C227 23.8219 227 30.8472 227 31.7778C227 40.0929 226.475 48.2861 229.222 56.2222C230.079 58.6983 229.905 65.9523 232 67" stroke="#cfc7bb" stroke-linecap="round"/>
</svg>
