<?xml version="1.0" encoding="utf-8"?>
<!-- Generator: Adobe Illustrator 24.1.0, SVG Export Plug-In . SVG Version: 6.00 Build 0)  -->
<svg class="svg-logo" fill="#CFC7BB" version="1.1" id="Capa_1" xmlns="http://www.w3.org/2000/svg" xmlns:xlink="http://www.w3.org/1999/xlink" x="0px" y="0px"
	 viewBox="0 0 128.2 29.3" style="enable-background:new 0 0 128.2 29.3;" xml:space="preserve">
<g>
	
	<g>
		<path d="M1.1,18c0-4.4,3.5-8.7,8.7-8.7H25c5.2,0,8.7,4.3,8.7,8.7h1.1c0-8.9-7.1-17.4-17.4-17.4l0,0C7.1,0.7,0,9.1,0,18H1.1z" stroke="#CFC7BB" />
		<path d="M17.4,11.5L17.4,11.5C7.1,11.5,0,20,0,28.9h1.1c0-4.4,3.5-8.7,8.7-8.7h15.2c5.2,0,8.7,4.3,8.7,8.7h1.1
			C34.7,20,27.7,11.5,17.4,11.5z"  stroke="#CFC7BB"/>
	</g>
</g>
</svg>
