<svg width="248" height="226" viewBox="0 0 248 226" fill="none" xmlns="http://www.w3.org/2000/svg" class="my-svg3">
<path stroke-dasharray="700" d="M63 170C63 150.557 60.3233 129.04 65.0556 110.111C70.8292 87.0166 81.8902 59.7135 98.4444 42.2222C107.575 32.5749 118.906 26.1476 131 21.0555C138.346 17.9625 147.38 19 155.167 19C160.634 19 166.265 18.465 171.556 20.1111C183.318 23.7707 197.756 37.0699 198 50C198.384 70.3371 187.721 84.6626 176.944 101.111C165.443 118.666 150.521 137.06 131.444 146.778C124.479 150.326 62 166.422 62 160" stroke="#CFC7BB" stroke-linecap="round"/>
<path stroke-dasharray="700" d="M160 17C160 14.0069 158.758 3.37899 156 2" stroke="#CFC7BB" stroke-linecap="round"/>
<path stroke-dasharray="700" d="M183 29C186.319 26.0131 192.777 26.4078 197 25" stroke="#CFC7BB" stroke-linecap="round"/>
<path stroke-dasharray="700" d="M197 50H221" stroke="#CFC7BB" stroke-linecap="round"/>
<path stroke-dasharray="700" d="M137 42C130.05 41.2277 140.255 30.6442 141.944 36.5555C143.809 43.083 138.948 44.4739 134 42" stroke="#CFC7BB" stroke-linecap="round"/>
<path stroke-dasharray="700" d="M166 63C162.192 62.524 167.414 53.6177 170.778 59C173.8 63.8357 170.66 65 166 65" stroke="#CFC7BB" stroke-linecap="round"/>
<path stroke-dasharray="700" d="M111 58C111.902 67.9247 121.527 79.2636 130 83.5C134.948 85.9738 140.739 85.6847 146 87" stroke="#CFC7BB" stroke-linecap="round"/>
<path stroke-dasharray="700" d="M88 53C81.3495 46.3495 78.3053 38.3416 77.2222 29C76.0422 18.8225 79.6191 5.15238 90 1" stroke="#CFC7BB" stroke-linecap="round"/>
<path stroke-dasharray="700" d="M173 106C181.654 106 192.393 112.625 200.111 116.056C209.191 120.091 217.002 121.183 226.944 118.611C237.299 115.933 241.545 111.182 247 103" stroke="#CFC7BB" stroke-linecap="round"/>
<path stroke-dasharray="700" d="M61 140C45.5949 140 26.1131 136.242 12.2222 144.222C7.1028 147.163 1 150.466 1 157" stroke="#CFC7BB" stroke-linecap="round"/>
<path stroke-dasharray="700" d="M83 160C88.6391 176.353 94.6604 192.716 95.8889 210.222C96.1225 213.55 98.4489 228.966 91 224" stroke="#CFC7BB" stroke-linecap="round"/>
</svg>
