<svg width="201" height="134" viewBox="0 0 201 134" fill="none" xmlns="http://www.w3.org/2000/svg" class="my-svg">
<path d="M1 59C1.19007 57.4794 3.0548 56.7386 3.77778 55.5556C7.05041 50.2003 13.3526 45.9605 18 41.7778C29.4949 31.4324 42.368 22.9703 54 13" stroke="#cfc7bb" stroke-linecap="round" stroke-dasharray="700"/>
<path d="M7 17C15.7807 17 24.2808 25.3646 31.0556 30C39.5828 35.8344 46.7283 42.7283 54 50" stroke="#cfc7bb" stroke-linecap="round" stroke-dasharray="700"/>
<path d="M161 1C157.826 1.70529 154.486 8.08695 152.444 10.5C148.888 14.7028 146.417 19.6065 143 24C139.665 28.2876 137.358 33.2832 135 38" stroke="#cfc7bb" stroke-linecap="round" stroke-dasharray="700"/>
<path d="M124 7C134.889 7 145.761 13.8666 154.889 19.4444C159.037 21.9794 164.909 26.8172 167 31" stroke="#cfc7bb" stroke-linecap="round" stroke-dasharray="700"/>
<path d="M41 109C45.2662 109.237 47.9297 112.426 51.2222 114.778C57.7381 119.432 65.1096 122.928 72.5 125.944C91.1143 133.542 115.354 134.791 134.889 130.222C165.877 122.975 191.183 102.86 200 72" stroke="#cfc7bb" stroke-linecap="round" stroke-dasharray="700"/>
</svg>
